<?xml version="1.0" encoding="UTF-8"?>
<svg width="512" height="512" viewBox="0 0 512 512" fill="none" xmlns="http://www.w3.org/2000/svg">
    <!-- Fondo circular -->
    <circle cx="256" cy="256" r="256" fill="#3f2b96"/>
    
    <!-- Luna -->
    <path d="M256 64C150.144 64 64 150.144 64 256C64 361.856 150.144 448 256 448C361.856 448 448 361.856 448 256C448 150.144 361.856 64 256 64ZM256 416C167.552 416 96 344.448 96 256C96 167.552 167.552 96 256 96C344.448 96 416 167.552 416 256C416 344.448 344.448 416 256 416Z" fill="#a8c0ff"/>
    
    <!-- Detalles de la luna -->
    <path d="M256 128C185.344 128 128 185.344 128 256C128 326.656 185.344 384 256 384C326.656 384 384 326.656 384 256C384 185.344 326.656 128 256 128ZM256 352C203.072 352 160 308.928 160 256C160 203.072 203.072 160 256 160C308.928 160 352 203.072 352 256C352 308.928 308.928 352 256 352Z" fill="#ffffff"/>
</svg> 